REM DIRINDEX 1\6,1\2\7,1\2\8,1\2\9,1\3\10,1\3\11,1\4\12,1\4\13,1\4\14,1\5\15,1\5\16,1\5\17
REM DIRNAME cjc041,folder01,folder02,folder03,folder04,folder05,folder06,folder07,folder08,folder09,folder10,folder11,folder12,folder13,folder14,folder15,folder16
TITLE ""
FILE "3Q_t2_0215-0230.mp3" MP3
  TRACK 01 AUDIO
    TITLE "7:cjc041_4058"
    INDEX 01 00:00:00
  TRACK 02 AUDIO
    TITLE "0:"
    INDEX 01 00:00:68
  TRACK 03 AUDIO
    TITLE "8:cjc041_4059"
    INDEX 01 00:01:48
  TRACK 04 AUDIO
    TITLE "0:"
    INDEX 01 00:05:46
  TRACK 05 AUDIO
    TITLE "9:cjc041_4060"
    INDEX 01 00:06:26
  TRACK 06 AUDIO
    TITLE "0:"
    INDEX 01 00:07:29
  TRACK 07 AUDIO
    TITLE "7:cjc041_4061"
    INDEX 01 00:09:04
  TRACK 08 AUDIO
    TITLE "0:"
    INDEX 01 00:10:18
  TRACK 09 AUDIO
    TITLE "8:cjc041_4062"
    INDEX 01 00:10:74
  TRACK 10 AUDIO
    TITLE "0:"
    INDEX 01 00:15:01
  TRACK 11 AUDIO
    TITLE "9:cjc041_4063"
    INDEX 01 00:15:54
  TRACK 12 AUDIO
    TITLE "0:"
    INDEX 01 00:16:65
  TRACK 13 AUDIO
    TITLE "7:cjc041_4064"
    INDEX 01 00:18:44
  TRACK 14 AUDIO
    TITLE "0:"
    INDEX 01 00:19:46
  TRACK 15 AUDIO
    TITLE "8:cjc041_4065"
    INDEX 01 00:20:24
  TRACK 16 AUDIO
    TITLE "0:"
    INDEX 01 00:21:35
  TRACK 17 AUDIO
    TITLE "9:cjc041_4066"
    INDEX 01 00:22:15
  TRACK 18 AUDIO
    TITLE "0:"
    INDEX 01 00:23:20
  TRACK 19 AUDIO
    TITLE "7:cjc041_4067"
    INDEX 01 00:25:05
  TRACK 20 AUDIO
    TITLE "0:"
    INDEX 01 00:26:20
  TRACK 21 AUDIO
    TITLE "8:cjc041_4068"
    INDEX 01 00:27:00
  TRACK 22 AUDIO
    TITLE "0:"
    INDEX 01 00:28:31
  TRACK 23 AUDIO
    TITLE "9:cjc041_4069"
    INDEX 01 00:29:07
  TRACK 24 AUDIO
    TITLE "0:"
    INDEX 01 00:30:26
  TRACK 25 AUDIO
    TITLE "7:cjc041_4070"
    INDEX 01 00:32:07
  TRACK 26 AUDIO
    TITLE "0:"
    INDEX 01 00:33:11
  TRACK 27 AUDIO
    TITLE "8:cjc041_4071"
    INDEX 01 00:33:66
  TRACK 28 AUDIO
    TITLE "0:"
    INDEX 01 00:36:17
  TRACK 29 AUDIO
    TITLE "9:cjc041_4072"
    INDEX 01 00:36:74
  TRACK 30 AUDIO
    TITLE "0:"
    INDEX 01 00:38:04
  TRACK 31 AUDIO
    TITLE "7:cjc041_4073"
    INDEX 01 00:39:64
  TRACK 32 AUDIO
    TITLE "0:"
    INDEX 01 00:41:14
  TRACK 33 AUDIO
    TITLE "8:cjc041_4074"
    INDEX 01 00:41:63
  TRACK 34 AUDIO
    TITLE "0:"
    INDEX 01 00:44:44
  TRACK 35 AUDIO
    TITLE "9:cjc041_4075"
    INDEX 01 00:45:16
  TRACK 36 AUDIO
    TITLE "0:"
    INDEX 01 00:46:41
  TRACK 37 AUDIO
    TITLE "7:cjc041_4076"
    INDEX 01 00:48:20
  TRACK 38 AUDIO
    TITLE "0:"
    INDEX 01 00:49:29
  TRACK 39 AUDIO
    TITLE "8:cjc041_4077"
    INDEX 01 00:50:11
  TRACK 40 AUDIO
    TITLE "0:"
    INDEX 01 00:53:08
  TRACK 41 AUDIO
    TITLE "9:cjc041_4078"
    INDEX 01 00:53:58
  TRACK 42 AUDIO
    TITLE "0:"
    INDEX 01 00:54:68
  TRACK 43 AUDIO
    TITLE "7:cjc041_4079"
    INDEX 01 00:56:49
  TRACK 44 AUDIO
    TITLE "0:"
    INDEX 01 00:57:62
  TRACK 45 AUDIO
    TITLE "8:cjc041_4080"
    INDEX 01 00:58:42
  TRACK 46 AUDIO
    TITLE "0:"
    INDEX 01 01:01:33
  TRACK 47 AUDIO
    TITLE "9:cjc041_4081"
    INDEX 01 01:02:12
  TRACK 48 AUDIO
    TITLE "0:"
    INDEX 01 01:03:29
  TRACK 49 AUDIO
    TITLE "7:cjc041_4082"
    INDEX 01 01:05:07
  TRACK 50 AUDIO
    TITLE "0:"
    INDEX 01 01:06:14
  TRACK 51 AUDIO
    TITLE "8:cjc041_4083"
    INDEX 01 01:06:69
  TRACK 52 AUDIO
    TITLE "0:"
    INDEX 01 01:09:12
  TRACK 53 AUDIO
    TITLE "9:cjc041_4084"
    INDEX 01 01:09:69
  TRACK 54 AUDIO
    TITLE "0:"
    INDEX 01 01:10:73
  TRACK 55 AUDIO
    TITLE "7:cjc041_4085"
    INDEX 01 01:12:58
  TRACK 56 AUDIO
    TITLE "0:"
    INDEX 01 01:13:65
  TRACK 57 AUDIO
    TITLE "8:cjc041_4086"
    INDEX 01 01:14:45
  TRACK 58 AUDIO
    TITLE "0:"
    INDEX 01 01:15:74
  TRACK 59 AUDIO
    TITLE "9:cjc041_4087"
    INDEX 01 01:16:52
  TRACK 60 AUDIO
    TITLE "0:"
    INDEX 01 01:17:65
  TRACK 61 AUDIO
    TITLE "7:cjc041_4088"
    INDEX 01 01:19:42
  TRACK 62 AUDIO
    TITLE "0:"
    INDEX 01 01:20:59
  TRACK 63 AUDIO
    TITLE "8:cjc041_4089"
    INDEX 01 01:21:35
  TRACK 64 AUDIO
    TITLE "0:"
    INDEX 01 01:22:58
  TRACK 65 AUDIO
    TITLE "9:cjc041_4090"
    INDEX 01 01:23:40
  TRACK 66 AUDIO
    TITLE "0:"
    INDEX 01 01:24:65
  TRACK 67 AUDIO
    TITLE "7:cjc041_4091"
    INDEX 01 01:26:48
  TRACK 68 AUDIO
    TITLE "0:"
    INDEX 01 01:27:57
  TRACK 69 AUDIO
    TITLE "8:cjc041_4092"
    INDEX 01 01:28:33
  TRACK 70 AUDIO
    TITLE "0:"
    INDEX 01 01:31:00
  TRACK 71 AUDIO
    TITLE "9:cjc041_4093"
    INDEX 01 01:31:55
  TRACK 72 AUDIO
    TITLE "0:"
    INDEX 01 01:32:66
  TRACK 73 AUDIO
    TITLE "7:cjc041_4094"
    INDEX 01 01:34:44
  TRACK 74 AUDIO
    TITLE "0:"
    INDEX 01 01:35:55
  TRACK 75 AUDIO
    TITLE "8:cjc041_4095"
    INDEX 01 01:36:37
  TRACK 76 AUDIO
    TITLE "0:"
    INDEX 01 01:39:74
  TRACK 77 AUDIO
    TITLE "9:cjc041_4096"
    INDEX 01 01:40:50
  TRACK 78 AUDIO
    TITLE "0:"
    INDEX 01 01:41:71
  TRACK 79 AUDIO
    TITLE "7:cjc041_4097"
    INDEX 01 01:43:49
  TRACK 80 AUDIO
    TITLE "0:"
    INDEX 01 01:44:56
  TRACK 81 AUDIO
    TITLE "8:cjc041_4098"
    INDEX 01 01:45:26
  TRACK 82 AUDIO
    TITLE "0:"
    INDEX 01 01:46:49
  TRACK 83 AUDIO
    TITLE "9:cjc041_4099"
    INDEX 01 01:47:25
  TRACK 84 AUDIO
    TITLE "0:"
    INDEX 01 01:48:38
  TRACK 85 AUDIO
    TITLE "7:cjc041_4100"
    INDEX 01 01:50:19
  TRACK 86 AUDIO
    TITLE "0:"
    INDEX 01 01:51:32
  TRACK 87 AUDIO
    TITLE "8:cjc041_4101"
    INDEX 01 01:52:14
  TRACK 88 AUDIO
    TITLE "0:"
    INDEX 01 01:54:56
  TRACK 89 AUDIO
    TITLE "9:cjc041_4102"
    INDEX 01 01:55:36
  TRACK 90 AUDIO
    TITLE "0:"
    INDEX 01 01:56:53
  TRACK 91 AUDIO
    TITLE "7:cjc041_4103"
    INDEX 01 01:58:30
  TRACK 92 AUDIO
    TITLE "0:"
    INDEX 01 01:59:32
  TRACK 93 AUDIO
    TITLE "8:cjc041_4104"
    INDEX 01 02:00:16
  TRACK 94 AUDIO
    TITLE "0:"
    INDEX 01 02:01:62
  TRACK 95 AUDIO
    TITLE "9:cjc041_4105"
    INDEX 01 02:02:42
  TRACK 96 AUDIO
    TITLE "0:"
    INDEX 01 02:03:45
